<?xml version="1.0" standalone="no"?><!DOCTYPE svg PUBLIC "-//W3C//DTD SVG 1.1//EN" "http://www.w3.org/Graphics/SVG/1.1/DTD/svg11.dtd"><svg t="1667570781593" class="icon" viewBox="0 0 1024 1024" version="1.1" xmlns="http://www.w3.org/2000/svg" p-id="5282" xmlns:xlink="http://www.w3.org/1999/xlink" width="200" height="200"><path d="M512 42.666667a469.333333 469.333333 0 1 0 469.333333 469.333333A469.333333 469.333333 0 0 0 512 42.666667z m0 896a424.533333 424.533333 0 0 1-279.466667-104.96 298.666667 298.666667 0 0 1 558.933334 0A424.533333 424.533333 0 0 1 512 938.666667z m-149.333333-490.666667a149.333333 149.333333 0 1 1 149.333333 149.333333 149.333333 149.333333 0 0 1-149.333333-149.333333z m461.866666 353.493333a341.333333 341.333333 0 0 0-213.333333-189.226666 192 192 0 1 0-197.973333 0 341.333333 341.333333 0 0 0-213.333334 189.226666 426.666667 426.666667 0 1 1 624.64 0z" fill="#1296db" p-id="5283"></path></svg>